<?xml version="1.0" encoding="utf-8"?>
<!-- Generator: Adobe Illustrator 24.0.2, SVG Export Plug-In . SVG Version: 6.00 Build 0)  -->
<svg version="1.1" id="Layer_1" xmlns="http://www.w3.org/2000/svg" xmlns:xlink="http://www.w3.org/1999/xlink" x="0px" y="0px"
	 viewBox="0 0 3176.5 1288.2" style="enable-background:new 0 0 3176.5 1288.2;" xml:space="preserve">
<style type="text/css">
	.st0{fill:#2196F3;}
	.st1{fill:#455A64;}
</style>
<g transform="scale(8.823529411764707) translate(10, 10)">
	<g id="SvgjsG12190" transform="matrix(2.9124, 0, 0, 2.9124, -0.0517781, -29.124)">
		<path class="st0" d="M28.4,10.8c0.1,0.2,0.2,0.5,0.2,0.8c0,0.3-0.1,0.5-0.3,0.7l-11.1,16v10.3c0,0.4-0.1,0.7-0.4,1s-0.6,0.4-1,0.4
			h-3.1c-0.4,0-0.7-0.1-1-0.4c-0.3-0.3-0.4-0.6-0.4-1V26.8c0-0.3,0.1-0.5,0.3-0.8l10.7-15.4c0.1-0.2,0.3-0.3,0.5-0.4
			s0.4-0.2,0.7-0.2h3.7c0.3,0,0.5,0.1,0.7,0.2C28.2,10.3,28.3,10.5,28.4,10.8L28.4,10.8z M11.6,19.6c-0.1,0.2-0.3,0.4-0.5,0.6
			c-0.2,0.1-0.5,0.2-0.7,0.2H6.6c-0.5,0-0.9-0.2-1.2-0.6l-5.2-7.5C0.1,12,0,11.8,0,11.5c0-0.3,0-0.5,0.1-0.8s0.3-0.4,0.5-0.6
			S1.1,10,1.4,10h3.8c0.5,0,0.8,0.2,1.2,0.6l5.2,7.5c0.1,0.2,0.2,0.5,0.2,0.7C11.8,19.1,11.7,19.3,11.6,19.6z M43.5,10.3
			c0.3,0.3,0.5,0.6,0.5,1.1v3c0,0.3-0.1,0.6-0.3,0.9c-0.2,0.3-0.5,0.4-0.8,0.5c-1.7,0.3-3.2,1.2-4.4,2.4c-1.6,1.7-2.4,3.9-2.4,6.7
			s0.8,5,2.4,6.7c1.2,1.3,2.7,2.1,4.4,2.4c0.3,0.1,0.6,0.2,0.8,0.5c0.2,0.3,0.3,0.6,0.3,0.9v3c0,0.4-0.2,0.8-0.5,1.1
			c-0.3,0.2-0.6,0.3-0.9,0.3h-0.2c-3.1-0.5-5.7-1.9-8-4.2c-2.8-2.9-4.2-6.4-4.2-10.7c0-4.3,1.4-7.8,4.2-10.7c2.2-2.2,4.8-3.6,8-4.2
			C42.7,10,43.1,10.1,43.5,10.3L43.5,10.3z M56,14.2c2.8,2.9,4.2,6.5,4.2,10.7s-1.4,7.8-4.2,10.7c-2.2,2.3-4.9,3.7-8,4.2h-0.2
			c-0.3,0-0.6-0.1-0.9-0.3c-0.3-0.3-0.5-0.7-0.5-1.1v-3c0-0.3,0.1-0.6,0.3-0.9c0.2-0.3,0.5-0.4,0.8-0.5c1.7-0.3,3.2-1.1,4.4-2.4
			c1.6-1.7,2.4-4,2.4-6.7s-0.8-5-2.4-6.7c-1.2-1.3-2.7-2.1-4.4-2.4c-0.3-0.1-0.6-0.2-0.8-0.5c-0.2-0.3-0.3-0.6-0.3-0.9v-3
			c0-0.5,0.2-0.8,0.5-1.1s0.7-0.4,1.1-0.3C51.2,10.6,53.9,12,56,14.2L56,14.2z M82.9,11c1.6,0.6,3.1,1.6,4.4,3
			c2.8,2.8,4.2,6.4,4.2,10.8c0,4.4-1.4,8-4.2,10.9c-1.3,1.4-2.8,2.3-4.4,3c-1.7,0.7-3.4,1-5.2,1H66.4c-0.4,0-0.7-0.1-1-0.4
			s-0.4-0.6-0.4-1v-2.9c0-0.4,0.1-0.7,0.4-1c0.3-0.3,0.6-0.4,1-0.4h11.2c2.4,0,4.3-0.9,5.8-2.6c1.5-1.7,2.2-3.9,2.2-6.5
			s-0.7-4.8-2.2-6.5c-1.5-1.7-3.4-2.6-5.8-2.6H66.4c-0.4,0-0.7-0.1-1-0.4c-0.3-0.3-0.4-0.6-0.4-1v-2.9c0-0.4,0.1-0.7,0.4-1
			s0.6-0.4,1-0.4h11.3C79.5,10,81.2,10.3,82.9,11L82.9,11z M100.8,10c0.4,0,0.7,0.1,1,0.4s0.4,0.6,0.4,1v26.8c0,0.4-0.1,0.7-0.4,1
			c-0.3,0.3-0.6,0.4-1,0.4h-3c-0.4,0-0.7-0.1-1-0.4c-0.3-0.3-0.4-0.6-0.4-1V11.4c0-0.4,0.1-0.7,0.4-1c0.3-0.3,0.6-0.4,1-0.4
			L100.8,10L100.8,10z M115.4,33.9c0.4,0,0.7,0.1,1,0.4s0.4,0.6,0.4,1v2.9c0,0.4-0.1,0.7-0.4,1s-0.6,0.4-1,0.4H106
			c-0.4,0-0.7-0.1-1-0.4c-0.3-0.3-0.4-0.6-0.4-1v-2.9c0-0.4,0.1-0.7,0.4-1c0.3-0.3,0.6-0.4,1-0.4H115.4z"/>
	</g>
	<g id="SvgjsG12191" transform="matrix(2.3985, 0, 0, 2.3985, 146.122, 78.0235)">
		<path class="st1" d="M15.4,5c0.2,0,0.3,0.1,0.5,0.2c0.1,0.1,0.2,0.3,0.2,0.5v13.4c0,0.2-0.1,0.4-0.2,0.5c-0.1,0.1-0.3,0.2-0.5,0.2
			h-1.5c-0.2,0-0.4-0.1-0.5-0.2s-0.2-0.3-0.2-0.5v-9l-3.7,4.8c-0.1,0.2-0.3,0.3-0.6,0.3l0,0c-0.1,0-0.2,0-0.3-0.1
			c-0.1,0-0.2-0.1-0.2-0.2L1.8,6.1C1.7,6,1.6,5.9,1.6,5.8c0-0.1,0-0.3,0.1-0.4C1.8,5.3,1.9,5.2,2,5.1C2.1,5,2.2,5,2.3,5h1.8
			c0.2,0,0.4,0.1,0.6,0.3l4.2,5.6L13,5.3C13.2,5.1,13.4,5,13.6,5L15.4,5L15.4,5z M3.8,14.7c0.2,0,0.4,0.1,0.5,0.2s0.2,0.3,0.2,0.5
			v3.7c0,0.2-0.1,0.4-0.2,0.5S4,19.8,3.8,19.8H2.3c-0.2,0-0.4-0.1-0.5-0.2s-0.2-0.3-0.2-0.5v-3.7c0-0.2,0.1-0.4,0.2-0.5
			s0.3-0.2,0.5-0.2L3.8,14.7L3.8,14.7z M24.5,17.1c0.2,0.1,0.3,0.1,0.4,0.3c0.1,0.1,0.1,0.3,0.1,0.4v1.5c0,0.2-0.1,0.4-0.3,0.5
			c-0.1,0.1-0.3,0.2-0.4,0.2c-0.1,0-0.1,0-0.1,0c-1.2-0.2-2.3-0.8-3.2-1.7c-1.2-1.2-1.8-2.8-1.8-4.8V5.7c0-0.2,0.1-0.4,0.2-0.5
			S19.7,5,19.8,5h1.5c0.2,0,0.4,0.1,0.5,0.2c0.1,0.1,0.2,0.3,0.2,0.5v7.7c0,1.3,0.4,2.2,1.1,2.9C23.6,16.7,24,16.9,24.5,17.1
			L24.5,17.1z M31.4,5c0.2,0,0.4,0.1,0.5,0.2c0.1,0.1,0.2,0.3,0.2,0.5v7.7c0,2-0.6,3.6-1.8,4.8c-0.9,0.9-2,1.5-3.2,1.7
			c0,0-0.1,0-0.1,0c-0.2,0-0.3-0.1-0.4-0.2c-0.2-0.1-0.3-0.3-0.3-0.6v-1.5c0-0.1,0-0.3,0.1-0.4c0.1-0.1,0.2-0.2,0.4-0.3
			c0.5-0.1,0.9-0.4,1.3-0.7c0.7-0.6,1.1-1.6,1.1-2.9V5.7c0-0.2,0.1-0.4,0.2-0.5S29.6,5,29.8,5L31.4,5L31.4,5z M44.9,12.4
			c0.6,0.4,1,0.8,1.3,1.3s0.5,1.1,0.5,1.7c0,1.5-0.6,2.7-1.7,3.5c-0.8,0.6-1.8,0.9-3.1,1.1h-0.1c-0.2,0-0.3-0.1-0.5-0.2
			c-0.2-0.1-0.2-0.3-0.2-0.5v-1.4c0-0.2,0.1-0.3,0.2-0.5s0.3-0.2,0.4-0.2c0.6-0.1,1.1-0.2,1.5-0.4c0.3-0.2,0.4-0.4,0.5-0.6
			c0.1-0.1,0.1-0.3,0.1-0.6c0-0.1,0-0.3-0.1-0.4c-0.1-0.1-0.1-0.2-0.3-0.3c-0.4-0.3-0.9-0.5-1.5-0.7l-0.3-0.1
			c-0.7-0.2-1.3-0.3-1.8-0.5c-0.1,0-0.3-0.1-0.6-0.1l-0.2-0.1c-0.5-0.1-1-0.3-1.5-0.5c-0.8-0.3-1.4-0.8-1.9-1.3
			c-0.6-0.6-0.9-1.4-0.9-2.3c0-1.3,0.5-2.4,1.5-3.2c0.7-0.6,1.7-1,2.9-1.1c0.2,0,0.4,0,0.5,0.2c0.2,0.1,0.2,0.3,0.2,0.5v1.4
			c0,0.2-0.1,0.3-0.2,0.5c-0.1,0.1-0.2,0.2-0.4,0.2s-0.3,0.1-0.5,0.1c-0.4,0.1-0.7,0.3-0.8,0.4c-0.2,0.1-0.3,0.3-0.3,0.4
			c-0.1,0.2-0.1,0.4-0.1,0.6c0,0.1,0.1,0.2,0.2,0.3c0.2,0.2,0.5,0.4,0.8,0.5c0.2,0.1,0.4,0.2,0.8,0.3l2.5,0.6l0.1,0
			c0.6,0.2,1.1,0.3,1.4,0.4C43.9,11.9,44.5,12.1,44.9,12.4L44.9,12.4z M41.6,7.9c-0.2,0-0.3-0.1-0.4-0.3c-0.1-0.1-0.1-0.3-0.2-0.4
			V5.7c0-0.2,0.1-0.4,0.3-0.5c0.1-0.1,0.2-0.1,0.3-0.1c0.1,0,0.2,0,0.3,0c1.2,0.2,2.1,0.6,2.9,1.2c1,0.8,1.5,1.9,1.6,3.2
			c0,0.2,0,0.4-0.2,0.5s-0.3,0.2-0.5,0.2h-1.6c-0.2,0-0.3-0.1-0.5-0.2s-0.2-0.3-0.2-0.4c-0.1-0.3-0.2-0.6-0.3-0.9
			c-0.3-0.3-0.7-0.6-1.3-0.8C41.7,7.9,41.7,7.9,41.6,7.9L41.6,7.9L41.6,7.9z M39.3,17.1c0.2,0,0.3,0.1,0.4,0.2s0.2,0.3,0.2,0.4v1.5
			c0,0.2-0.1,0.4-0.2,0.5c-0.1,0.1-0.3,0.2-0.5,0.2H39c-1.2-0.2-2.3-0.6-3.1-1.2c-1-0.8-1.6-2-1.8-3.5c0-0.2,0-0.4,0.2-0.6
			s0.3-0.2,0.5-0.2h1.6c0.2,0,0.3,0.1,0.5,0.2c0.1,0.1,0.2,0.3,0.2,0.5c0,0.7,0.4,1.2,1,1.5C38.4,16.8,38.8,17,39.3,17.1L39.3,17.1z
			 M51.2,10.9c0.2,0,0.4,0.1,0.5,0.2c0.1,0.1,0.2,0.3,0.2,0.5v7.5c0,0.2-0.1,0.4-0.2,0.5c-0.1,0.1-0.3,0.2-0.5,0.2h-1.5
			c-0.2,0-0.4-0.1-0.5-0.2c-0.1-0.1-0.2-0.3-0.2-0.5v-7.5c0-0.2,0.1-0.4,0.2-0.5s0.3-0.2,0.5-0.2H51.2z M51.2,5
			c0.2,0,0.4,0.1,0.5,0.2c0.1,0.1,0.2,0.3,0.2,0.5v3.7c0,0.2-0.1,0.4-0.2,0.5c-0.1,0.1-0.3,0.2-0.5,0.2h-1.5c-0.2,0-0.4-0.1-0.5-0.2
			C49.1,9.8,49,9.6,49,9.4V5.7c0-0.2,0.1-0.3,0.2-0.5S49.5,5,49.7,5H51.2z M62.6,7.9c-0.2,0-0.3-0.1-0.4-0.2S62,7.3,62,7.2V5.7
			c0-0.2,0.1-0.4,0.2-0.5S62.5,5,62.8,5c1.1,0.2,2.2,0.6,3.1,1.2c1.2,0.8,2,2,2.5,3.3c0.1,0.2,0.1,0.4-0.1,0.6
			c-0.1,0.2-0.3,0.3-0.6,0.3H66c-0.1,0-0.3,0-0.4-0.1c-0.1-0.1-0.2-0.2-0.3-0.3c-0.3-0.7-0.7-1.2-1.3-1.7
			C63.6,8.1,63.1,7.9,62.6,7.9L62.6,7.9z M67.6,14.5c0.3,0,0.4,0.1,0.6,0.3c0.1,0.2,0.2,0.4,0.1,0.6c-0.5,1.4-1.3,2.5-2.5,3.3
			c-0.9,0.6-1.9,1-3.1,1.2h-0.1c-0.2,0-0.3-0.1-0.5-0.2C62,19.7,62,19.5,62,19.3v-1.5c0-0.2,0.1-0.3,0.2-0.5s0.2-0.2,0.4-0.2
			c0.6-0.1,1.1-0.3,1.5-0.6c0.6-0.4,1-1,1.3-1.7c0.1-0.1,0.1-0.2,0.3-0.3c0.1-0.1,0.3-0.1,0.4-0.1L67.6,14.5L67.6,14.5z M60.5,5.2
			c0.2,0.1,0.3,0.3,0.3,0.5v1.6c0,0.1,0,0.3-0.2,0.4C60.5,7.9,60.3,8,60.2,8c-0.2,0-0.3,0.1-0.4,0.1c-0.5,0.2-1,0.6-1.4,1
			c-0.8,0.9-1.1,2-1.1,3.4s0.4,2.5,1.1,3.4c0.5,0.5,1.1,0.9,1.8,1.1c0.1,0,0.3,0.1,0.4,0.3s0.2,0.3,0.2,0.4v1.6
			c0,0.2-0.1,0.4-0.3,0.5c-0.1,0.1-0.3,0.2-0.5,0.2h-0.1c-1.4-0.3-2.6-1-3.6-2.1c-1.3-1.4-1.9-3.2-1.9-5.3s0.6-3.9,1.9-5.3
			c1-1.1,2.2-1.8,3.6-2.1C60.1,5,60.3,5.1,60.5,5.2z"/>
	</g>
</g>
</svg>
